<svg width="191" height="142" viewBox="0 0 191 142" fill="none" xmlns="http://www.w3.org/2000/svg">
<path fill-rule="evenodd" clip-rule="evenodd" d="M149.82 -100.345C140.644 -108.868 131.693 -117.181 120.646 -114.482C109.839 -111.841 104.973 -101.107 99.9892 -90.1141C95.8562 -81 91.6432 -71.7076 83.8972 -66.7011C77.2522 -62.4058 68.5647 -63.0986 60.0059 -63.7812C50.3788 -64.549 40.914 -65.3038 34.6992 -58.9323C28.2397 -52.3099 29.3042 -42.6631 30.3966 -32.7627C31.2194 -25.3067 32.058 -17.7067 29.7104 -11.1477C27.0464 -3.70367 20.9092 2.64334 14.9002 8.85734C6.42503 17.6213 -1.79527 26.1223 0.343126 37.0663C2.71593 49.2093 13.0388 51.1033 24.3583 53.1793C33.9292 54.9353 44.2126 56.8213 51.0055 65.1443C56.8485 72.3033 57.5851 80.3993 58.3828 89.1673C59.2441 98.6343 60.1766 108.883 67.6863 119.58C78.8022 135.413 101.303 141.814 120.646 141.481C155.983 140.872 183.503 116.477 209.722 82.9773C235.941 49.4773 240.435 19.4773 231.656 -15.7297C220.883 -58.9323 207.722 -68.0227 167.198 -87.0581C160.983 -89.9775 155.36 -95.1994 149.82 -100.345ZM75.4602 -95.9008C75.4602 -86.1683 69.5012 -78.2786 62.1496 -78.2786C54.7985 -78.2786 48.8393 -86.1683 48.8393 -95.9008C48.8393 -105.633 54.7985 -113.523 62.1496 -113.523C69.5012 -113.523 75.4602 -105.633 75.4602 -95.9008Z" fill="#000"/>
</svg>
