<svg width="97" height="174" viewBox="0 0 97 174" fill="none" xmlns="http://www.w3.org/2000/svg">
<path fill-rule="evenodd" clip-rule="evenodd" d="M75.849 0.253994C98.457 4.03439 98.291 40.8677 116.58 54.7175C130.18 65.0163 160.786 51.5177 165.302 67.9942C171.079 89.076 141.406 93.173 137.5 119.956C135.568 133.202 153 139.012 153 157.456C153 175.9 123.545 202.948 112.32 215.441C90.315 239.93 66.5 246.956 46.5 246.956C26.5 246.956 2.41541 228.956 2.41541 204.456C2.41541 179.956 21.6213 169.632 22.104 151.812C22.425 139.946 5.47131 134.178 2.41541 122.71C-1.15969 109.293 -0.709387 94.847 3.38991 81.581C10.7127 57.8841 47.619 -4.46661 75.849 0.253994Z" fill="#000"/>
</svg>
