<svg width="140" height="143" viewBox="0 0 140 143" fill="none" xmlns="http://www.w3.org/2000/svg">
<path fill-rule="evenodd" clip-rule="evenodd" d="M135.351 66.1893C196.683 -5.00591 256.536 100.304 164.908 117.361C256.536 135.16 195.944 239.728 135.351 168.532C166.386 257.526 45.9394 256.785 76.975 168.532C15.643 239.728 -44.2109 135.16 47.4173 117.361C-44.9498 100.304 15.643 -4.26431 76.975 66.1893C45.2005 -22.0631 166.386 -22.0631 135.351 66.1893ZM105.793 104.012C113.183 104.012 119.833 109.945 119.833 117.361C119.833 124.777 113.183 131.452 105.793 131.452C98.404 131.452 92.492 124.777 92.492 117.361C92.492 109.945 98.404 104.012 105.793 104.012Z" fill="#000"/>
</svg>
